<svg xmlns="http://www.w3.org/2000/svg" width="74.259" height="57.222" viewBox="0 0 74.259 57.222">
  <g id="app_icon_afterpath" transform="translate(0 0.002)">
    <path id="パス_12" data-name="パス 12" d="M90.5,35.126c-1.908.706-14.294,21.528-20.4,31.948L33.631,46.958,30.31,52.97,67.888,73.715l3.454,11.947L67.888,91.6a.42.42,0,0,0,.5.611L83.652,87.8a.439.439,0,0,0,0-.8l-5.363-2.863L74.8,72.093C79.7,63.2,90.79,43.18,93.843,43.046c4.5-.191,3.359.267,5.954,2.634s4.771-4.771,4.771-4.771C101.4,40.164,93.309,34.1,90.5,35.126Z" transform="translate(-30.31 -35.01)" fill="#04b8d0"/>
    <path id="パス_13" data-name="パス 13" d="M64.6,58.526a.5.5,0,0,0,.687-.191L74.45,43.372a.515.515,0,0,0-.439-.782H36.032a.515.515,0,0,0-.229.973Z" transform="translate(-25.574 -28.122)" fill="#04b8d0"/>
    <g id="グループ_19" data-name="グループ 19" transform="translate(0 -0.002)">
      <g id="グループ_18" data-name="グループ 18" opacity="0.1">
        <path id="パス_14" data-name="パス 14" d="M90.5,35.126c-1.908.706-14.294,21.528-20.4,31.948L33.631,46.958,30.31,52.97,67.888,73.715l3.454,11.947L67.888,91.6a.42.42,0,0,0,.5.611L83.652,87.8a.439.439,0,0,0,0-.8l-5.363-2.863L74.8,72.093C79.7,63.2,90.79,43.18,93.843,43.046c4.5-.191,3.359.267,5.954,2.634s4.771-4.771,4.771-4.771C101.4,40.164,93.309,34.1,90.5,35.126Z" transform="translate(-30.31 -35.008)" fill="#fff"/>
        <path id="パス_15" data-name="パス 15" d="M64.6,58.526a.5.5,0,0,0,.687-.191L74.45,43.372a.515.515,0,0,0-.439-.782H36.032a.515.515,0,0,0-.229.973Z" transform="translate(-25.574 -28.121)" fill="#fff"/>
      </g>
    </g>
    <circle id="楕円形_17" data-name="楕円形 17" cx="2.157" cy="2.157" r="2.157" transform="translate(21.26 15.784)" fill="#fff"/>
    <circle id="楕円形_18" data-name="楕円形 18" cx="2.157" cy="2.157" r="2.157" transform="translate(27.291 19.525)" fill="#fff"/>
    <circle id="楕円形_19" data-name="楕円形 19" cx="2.157" cy="2.157" r="2.157" transform="translate(31.089 15.784)" fill="#fff"/>
  </g>
</svg>
